<svg version="1.1" viewBox="0.0 0.0 698.3385826771654 697.496062992126" fill="none" stroke="none" stroke-linecap="square" stroke-miterlimit="10" xmlns:xlink="http://www.w3.org/1999/xlink" xmlns="http://www.w3.org/2000/svg"><clipPath id="p.0"><path d="m0 0l698.33856 0l0 697.49603l-698.33856 0l0 -697.49603z" clip-rule="nonzero"/></clipPath><g clip-path="url(#p.0)"><path fill="#000000" fill-opacity="0.0" d="m0 0l698.33856 0l0 697.49603l-698.33856 0z" fill-rule="evenodd"/><g filter="url(#shadowFilter-p.1)"><use xlink:href="#p.1" transform="matrix(1.0 0.0 0.0 1.0 0.0 2.0)"/></g><defs><filter id="shadowFilter-p.1" filterUnits="userSpaceOnUse"><feGaussianBlur in="SourceAlpha" stdDeviation="2.0" result="blur"/><feComponentTransfer in="blur" color-interpolation-filters="sRGB"><feFuncR type="linear" slope="0" intercept="0.0"/><feFuncG type="linear" slope="0" intercept="0.0"/><feFuncB type="linear" slope="0" intercept="0.0"/><feFuncA type="linear" slope="0.5" intercept="0"/></feComponentTransfer></filter></defs><g id="p.1"><path fill="#ffe599" d="m8.0 348.80316l0 0c0 -188.2204 152.58276 -340.80316 340.80316 -340.80316l0 0c90.3866 0 177.07123 35.905945 240.98419 99.81893c63.913025 63.912987 99.81897 150.5976 99.81897 240.98422l0 0c0 188.2204 -152.58276 340.80316 -340.80316 340.80316l0 0c-188.2204 0 -340.80316 -152.58276 -340.80316 -340.80316z" fill-rule="evenodd"/><path stroke="#000000" stroke-width="12.0" stroke-linejoin="round" stroke-linecap="butt" d="m8.0 348.80316l0 0c0 -188.2204 152.58276 -340.80316 340.80316 -340.80316l0 0c90.3866 0 177.07123 35.905945 240.98419 99.81893c63.913025 63.912987 99.81897 150.5976 99.81897 240.98422l0 0c0 188.2204 -152.58276 340.80316 -340.80316 340.80316l0 0c-188.2204 0 -340.80316 -152.58276 -340.80316 -340.80316z" fill-rule="evenodd"/></g><path fill="#000000" fill-opacity="0.0" d="m237.84251 621.3858c-34.563446 0 -62.582672 -28.019165 -62.582672 -62.58264l0 -147.41733c0 -34.563477 -28.01921 -62.582672 -62.58268 -62.582672l0 0c34.56347 0 62.58268 -28.019226 62.58268 -62.582703l0 -147.41731l0 0c0 -34.563454 28.019226 -62.582672 62.582672 -62.582672z" fill-rule="evenodd"/><path fill="#000000" fill-opacity="0.0" d="m237.84251 621.3858c-34.563446 0 -62.582672 -28.019165 -62.582672 -62.58264l0 -147.41733c0 -34.563477 -28.01921 -62.582672 -62.58268 -62.582672l0 0c34.56347 0 62.58268 -28.019226 62.58268 -62.582703l0 -147.41731l0 0c0 -34.563454 28.019226 -62.582672 62.582672 -62.582672" fill-rule="evenodd"/><path stroke="#000000" stroke-width="8.0" stroke-linejoin="round" stroke-linecap="butt" d="m237.84251 621.3858c-34.563446 0 -62.582672 -28.019165 -62.582672 -62.58264l0 -147.41733c0 -34.563477 -28.01921 -62.582672 -62.58268 -62.582672l0 0c34.56347 0 62.58268 -28.019226 62.58268 -62.582703l0 -147.41731l0 0c0 -34.563454 28.019226 -62.582672 62.582672 -62.582672" fill-rule="evenodd"/><path fill="#000000" fill-opacity="0.0" d="m237.84251 137.92126l505.7953 0l0 421.7638l-505.7953 0z" fill-rule="evenodd"/><path fill="#000000" d="m288.8894 253.70813q-9.84375 0 -17.765625 -4.421875q-7.90625 -4.421875 -12.5625 -13.0q-4.6406403 -8.578125 -4.6406403 -20.53125q0 -16.8125 6.1406403 -29.640625q6.140625 -12.84375 16.703125 -19.8125q10.578125 -6.984375 23.421875 -6.984375q9.84375 0 17.75 4.4375q7.921875 4.421875 12.5625 13.0q4.640625 8.578125 4.640625 20.53125q0 16.8125 -6.140625 29.65625q-6.140625 12.828125 -16.703125 19.796875q-10.5625 6.96875 -23.40625 6.96875zm1.109375 -13.046875q8.625 0 15.203125 -5.3125q6.59375 -5.3125 10.125 -14.765625q3.546875 -9.46875 3.546875 -21.421875q0 -13.171875 -5.53125 -19.96875q-5.53125 -6.8125 -14.265625 -6.8125q-8.53125 0 -15.0625 5.265625q-6.515625 5.25 -10.171875 14.71875q-3.65625 9.453125 -3.65625 21.515625q0 13.171875 5.53125 19.984375q5.546875 6.796875 14.28125 6.796875zm111.5455 -12.171875q1.4375 0 2.265625 1.328125q0.828125 1.328125 0.828125 3.640625q0 4.4375 -2.109375 6.859375q-4.75 5.875 -10.234375 9.640625q-5.46875 3.75 -12.4375 3.75q-5.875 0 -9.515625 -4.203125q-6.3125 4.09375 -13.171875 4.203125q-1.4375 21.359375 -6.53125 35.6875q-5.09375 14.328125 -14.9375 14.328125q-5.96875 0 -8.84375 -4.3125q-2.890625 -4.3125 -2.890625 -11.953125q0 -10.84375 4.984375 -25.28125q4.984375 -14.4375 15.375 -31.8125q0 -16.15625 -0.21875 -22.46875q-0.109375 -3.203125 2.546875 -5.078125q2.65625 -1.890625 6.640625 -1.890625q2.328125 0 3.375 0.953125q1.046875 0.9375 1.15625 3.703125q0 2.765625 0.109375 4.09375q3.546875 -4.4375 6.96875 -6.359375q3.4375 -1.9375 7.3125 -1.9375q6.203125 0 10.125 4.984375q3.921875 4.96875 3.921875 13.046875q0 5.859375 -1.875 11.40625q-1.875 5.53125 -5.203125 10.0625q2.328125 0.65625 3.875 0.65625q3.65625 0 6.96875 -2.65625q3.328125 -2.65625 8.53125 -8.84375q1.3125 -1.546875 2.984375 -1.546875zm-43.828125 14.609375q3.984375 -0.890625 7.359375 -4.375q3.375 -3.484375 5.359375 -8.625q2.0 -5.15625 2.0 -10.796875q0 -3.328125 -1.328125 -5.03125q-1.328125 -1.71875 -3.53125 -1.71875q-3.984375 0 -9.640625 8.40625q-0.109375 4.875 -0.109375 14.28125q0 5.078125 -0.109375 7.859375zm-21.125 49.78125q2.984375 0 4.96875 -13.0q2.0 -13.0 2.546875 -32.359375q-4.75 11.0625 -7.515625 21.125q-2.765625 10.078125 -2.765625 16.9375q0 3.546875 0.828125 5.421875q0.828125 1.875 1.9375 1.875zm108.44443 -64.390625q1.4375 0 2.265625 1.328125q0.828125 1.328125 0.828125 3.640625q0 4.4375 -2.109375 6.859375q-4.09375 4.984375 -11.5625 9.1875q-7.46875 4.203125 -15.984375 4.203125q-11.625 0 -18.046875 -6.296875q-6.40625 -6.3125 -6.40625 -17.265625q0 -7.640625 3.203125 -14.21875q3.203125 -6.578125 8.90625 -10.453125q5.703125 -3.875 12.890625 -3.875q6.421875 0 10.296875 3.8125q3.875 3.8125 3.875 10.34375q0 7.640625 -5.484375 13.125q-5.46875 5.46875 -18.53125 8.671875q2.765625 5.09375 10.515625 5.09375q4.96875 0 11.328125 -3.484375q6.375 -3.484375 11.015625 -9.125q1.328125 -1.546875 3.0 -1.546875zm-27.890625 -16.046875q-4.09375 0 -6.921875 4.765625q-2.8125 4.75 -2.8125 11.5l0 0.21875q6.515625 -1.546875 10.28125 -4.640625q3.765625 -3.109375 3.765625 -7.203125q0 -2.09375 -1.171875 -3.359375q-1.15625 -1.28125 -3.140625 -1.28125zm29.87854 41.265625q-4.203125 0 -5.921875 -4.421875q-1.71875 -4.421875 -1.71875 -14.15625q0 -14.390625 4.09375 -27.34375q1.0 -3.203125 3.265625 -4.6875q2.265625 -1.5 6.359375 -1.5q2.21875 0 3.09375 0.5625q0.890625 0.546875 0.890625 2.09375q0 1.765625 -1.65625 7.96875q-1.109375 4.421875 -1.78125 7.75q-0.65625 3.3125 -1.09375 8.171875q3.65625 -9.515625 8.1875 -15.484375q4.53125 -5.96875 8.90625 -8.515625q4.375 -2.546875 8.015625 -2.546875q3.546875 0 5.375 1.828125q1.828125 1.8125 1.828125 5.359375q0 2.875 -1.21875 10.84375q-1.109375 6.75 -1.78125 12.78125q-0.65625 6.03125 -0.65625 13.453125q0 4.203125 -1.71875 6.03125q-1.703125 1.8125 -5.578125 1.8125q-3.65625 0 -5.3125 -1.875q-1.65625 -1.875 -1.65625 -5.640625q0 -4.421875 1.546875 -14.609375q1.328125 -8.859375 1.328125 -11.28125q0 -1.78125 -1.21875 -1.78125q-1.4375 0 -4.046875 3.71875q-2.59375 3.703125 -5.3125 9.796875q-2.703125 6.078125 -4.359375 12.828125q-1.21875 5.203125 -2.828125 7.03125q-1.609375 1.8125 -5.03125 1.8125z" fill-rule="nonzero"/><path fill="#000000" d="m296.96753 386.50812q-13.171875 0 -22.90625 -4.8125q-9.734375 -4.8125 -14.9375 -13.65625q-5.2031403 -8.859375 -5.2031403 -20.59375q0 -16.265625 6.1406403 -28.875q6.140625 -12.609375 16.65625 -19.53125q10.515625 -6.921875 23.34375 -6.921875q11.953125 0 18.140625 6.15625q6.203125 6.140625 6.203125 16.203125q0 6.75 -2.375 10.84375q-2.375 4.09375 -6.796875 4.09375q-3.109375 0 -4.875 -1.4375q-1.765625 -1.4375 -1.765625 -4.203125q0 -1.0 0.4375 -3.65625q0.671875 -3.3125 0.671875 -5.3125q0 -10.0625 -10.734375 -10.0625q-7.3125 0 -13.953125 4.765625q-6.640625 4.75 -10.734375 14.0q-4.09375 9.234375 -4.09375 21.953125q0 13.28125 7.40625 20.53125q7.421875 7.25 21.921875 7.25q7.1875 0 14.546875 -1.828125q7.359375 -1.828125 16.328125 -5.59375q1.65625 -0.65625 2.765625 -0.65625q1.765625 0 2.65625 1.328125q0.890625 1.328125 0.890625 3.421875q0 6.75 -7.3125 9.953125q-7.859375 3.4375 -16.328125 5.046875q-8.453125 1.59375 -16.09375 1.59375zm86.42853 -34.515625q1.4375 0 2.203125 1.4375q0.78125 1.4375 0.78125 3.65625q0 5.3125 -3.203125 6.296875q-6.640625 2.328125 -14.609375 2.65625q-2.109375 9.296875 -8.3125 14.890625q-6.1875 5.578125 -14.046875 5.578125q-6.640625 0 -11.34375 -3.203125q-4.703125 -3.203125 -7.140625 -8.515625q-2.421875 -5.3125 -2.421875 -11.515625q0 -8.40625 3.203125 -14.984375q3.203125 -6.59375 8.84375 -10.296875q5.65625 -3.703125 12.515625 -3.703125q8.40625 0 13.546875 5.8125q5.15625 5.796875 6.03125 14.328125q5.203125 -0.34375 12.40625 -2.21875q0.875 -0.21875 1.546875 -0.21875zm-36.296875 22.796875q3.53125 0 6.125 -2.875q2.609375 -2.890625 3.5 -8.3125q-3.4375 -2.3125 -5.265625 -6.078125q-1.8125 -3.765625 -1.8125 -7.96875q0 -1.765625 0.328125 -3.546875l-0.546875 0q-4.4375 0 -7.375 4.265625q-2.921875 4.265625 -2.921875 12.0q0 6.09375 2.375 9.3125q2.375 3.203125 5.59375 3.203125zm71.70285 -13.5q1.4375 0 2.265625 1.328125q0.828125 1.328125 0.828125 3.640625q0 4.4375 -2.09375 6.859375q-4.765625 5.875 -10.359375 9.640625q-5.578125 3.75 -12.65625 3.75q-9.75 0 -14.453125 -8.84375q-4.6875 -8.859375 -4.6875 -22.90625q0 -13.5 3.484375 -30.765625q3.484375 -17.265625 10.28125 -29.65625q6.8125 -12.390625 16.21875 -12.390625q5.3125 0 8.34375 4.921875q3.046875 4.921875 3.046875 14.109375q0 13.171875 -7.3125 30.546875q-7.296875 17.375 -19.796875 34.40625q0.78125 4.546875 2.546875 6.484375q1.765625 1.921875 4.640625 1.921875q4.546875 0 7.96875 -2.59375q3.4375 -2.59375 8.75 -8.90625q1.328125 -1.546875 2.984375 -1.546875zm-13.609375 -68.390625q-2.546875 0 -5.765625 9.1875q-3.203125 9.1875 -5.640625 22.796875q-2.421875 13.609375 -2.640625 26.109375q7.84375 -12.953125 12.484375 -25.953125q4.65625 -13.0 4.65625 -23.734375q0 -8.40625 -3.09375 -8.40625zm49.68332 68.390625q1.4375 0 2.265625 1.328125q0.828125 1.328125 0.828125 3.640625q0 4.4375 -2.09375 6.859375q-4.765625 5.875 -10.359375 9.640625q-5.578125 3.75 -12.65625 3.75q-9.75 0 -14.453125 -8.84375q-4.6875 -8.859375 -4.6875 -22.90625q0 -13.5 3.484375 -30.765625q3.484375 -17.265625 10.28125 -29.65625q6.8125 -12.390625 16.21875 -12.390625q5.3125 0 8.34375 4.921875q3.046875 4.921875 3.046875 14.109375q0 13.171875 -7.3125 30.546875q-7.296875 17.375 -19.796875 34.40625q0.78125 4.546875 2.546875 6.484375q1.765625 1.921875 4.640625 1.921875q4.546875 0 7.96875 -2.59375q3.4375 -2.59375 8.75 -8.90625q1.328125 -1.546875 2.984375 -1.546875zm-13.609375 -68.390625q-2.546875 0 -5.765625 9.1875q-3.203125 9.1875 -5.640625 22.796875q-2.421875 13.609375 -2.640625 26.109375q7.84375 -12.953125 12.484375 -25.953125q4.65625 -13.0 4.65625 -23.734375q0 -8.40625 -3.09375 -8.40625zm57.105194 68.390625q1.4375 0 2.265625 1.328125q0.828125 1.328125 0.828125 3.640625q0 4.4375 -2.109375 6.859375q-4.09375 4.984375 -11.5625 9.1875q-7.46875 4.203125 -15.984375 4.203125q-11.625 0 -18.046875 -6.296875q-6.40625 -6.3125 -6.40625 -17.265625q0 -7.640625 3.203125 -14.21875q3.203125 -6.578125 8.90625 -10.453125q5.703125 -3.875 12.890625 -3.875q6.421875 0 10.296875 3.8125q3.875 3.8125 3.875 10.34375q0 7.640625 -5.484375 13.125q-5.46875 5.46875 -18.53125 8.671875q2.765625 5.09375 10.515625 5.09375q4.96875 0 11.328125 -3.484375q6.375 -3.484375 11.015625 -9.125q1.328125 -1.546875 3.0 -1.546875zm-27.890625 -16.046875q-4.09375 0 -6.921875 4.765625q-2.8125 4.75 -2.8125 11.5l0 0.21875q6.515625 -1.546875 10.28125 -4.640625q3.765625 -3.109375 3.765625 -7.203125q0 -2.09375 -1.171875 -3.359375q-1.15625 -1.28125 -3.140625 -1.28125zm43.15976 41.265625q-10.8437195 0 -16.87497 -6.140625q-6.03125 -6.140625 -6.03125 -16.203125q0 -8.96875 3.53125 -15.71875q3.546875 -6.75 9.1875 -10.390625q5.640625 -3.65625 11.8437195 -3.65625q6.078125 0 9.453125 3.59375q3.375 3.59375 3.375 9.234375q0 4.65625 -2.046875 7.859375q-2.046875 3.203125 -5.359375 3.203125q-2.109375 0 -3.390625 -0.984375q-1.265625 -1.0 -1.265625 -2.765625q0 -0.78125 0.21875 -1.765625q0.234375 -1.0 0.34375 -1.453125q0.546875 -1.65625 0.546875 -3.09375q0 -1.4375 -0.71875 -2.203125q-0.71875 -0.78125 -2.046875 -0.78125q-2.5468445 0 -4.7655945 2.265625q-2.203125 2.265625 -3.53125 6.140625q-1.328125 3.875 -1.328125 8.515625q0 12.84375 11.1718445 12.84375q4.546875 0 9.796875 -3.046875q5.25 -3.046875 10.34375 -9.125q1.328125 -1.546875 2.984375 -1.546875q1.453125 0 2.28125 1.328125q0.828125 1.328125 0.828125 3.640625q0 4.21875 -2.109375 6.859375q-5.203125 6.421875 -12.453125 9.90625q-7.234375 3.484375 -13.984375 3.484375zm69.49359 -25.21875q1.4375 0 2.265625 1.328125q0.828125 1.328125 0.828125 3.640625q0 4.4375 -2.109375 6.859375q-4.75 5.875 -10.40625 9.640625q-5.640625 3.75 -12.9375 3.75q-22.578125 0 -22.578125 -31.75q0 -4.875 0.328125 -9.84375l-4.3125 0q-3.3125 0 -4.484375 -1.21875q-1.15625 -1.21875 -1.15625 -3.875q0 -6.203125 4.984375 -6.203125l6.296875 0q1.890625 -12.171875 5.765625 -22.234375q3.875 -10.078125 9.34375 -16.046875q5.484375 -5.984375 11.78125 -5.984375q4.65625 0 7.3125 4.09375q2.65625 4.09375 2.65625 10.296875q0 17.15625 -14.390625 29.875l12.390625 0q1.78125 0 2.546875 0.78125q0.78125 0.765625 0.78125 2.875q0 7.640625 -12.515625 7.640625l-13.5 0q-0.21875 5.53125 -0.21875 8.625q0 11.515625 2.703125 16.15625q2.71875 4.640625 8.59375 4.640625q4.75 0 8.40625 -2.875q3.65625 -2.875 8.625 -8.625q1.328125 -1.546875 3.0 -1.546875zm-19.375 -61.3125q-1.65625 0 -3.703125 4.15625q-2.046875 4.140625 -3.875 11.5q-1.828125 7.359375 -3.046875 16.328125q6.53125 -5.640625 9.796875 -12.671875q3.265625 -7.03125 3.265625 -12.78125q0 -6.53125 -2.4375 -6.53125zm69.94104 52.015625q1.4375 0 2.203125 1.4375q0.78125 1.4375 0.78125 3.65625q0 5.3125 -3.203125 6.296875q-6.640625 2.328125 -14.609375 2.65625q-2.109375 9.296875 -8.3125 14.890625q-6.1875 5.578125 -14.046875 5.578125q-6.640625 0 -11.34375 -3.203125q-4.703125 -3.203125 -7.140625 -8.515625q-2.421875 -5.3125 -2.421875 -11.515625q0 -8.40625 3.203125 -14.984375q3.203125 -6.59375 8.84375 -10.296875q5.65625 -3.703125 12.515625 -3.703125q8.40625 0 13.546875 5.8125q5.15625 5.796875 6.03125 14.328125q5.203125 -0.34375 12.40625 -2.21875q0.875 -0.21875 1.546875 -0.21875zm-36.296875 22.796875q3.53125 0 6.125 -2.875q2.609375 -2.890625 3.5 -8.3125q-3.4375 -2.3125 -5.265625 -6.078125q-1.8125 -3.765625 -1.8125 -7.96875q0 -1.765625 0.328125 -3.546875l-0.546875 0q-4.4375 0 -7.375 4.265625q-2.921875 4.265625 -2.921875 12.0q0 6.09375 2.375 9.3125q2.375 3.203125 5.59375 3.203125zm74.468506 -25.234375q2.4375 0 4.140625 1.71875q1.71875 1.71875 1.71875 4.25q0 1.453125 -0.65625 3.109375q-1.765625 4.09375 -4.984375 6.859375q-3.203125 2.765625 -7.078125 2.765625q-3.09375 0 -5.265625 -2.203125q-2.15625 -2.21875 -2.15625 -5.984375q0 -2.109375 0.234375 -4.546875q0.21875 -1.765625 0.21875 -2.421875q0 -0.890625 -0.390625 -1.328125q-0.390625 -0.453125 -0.9375 -0.453125q-1.546875 0 -4.203125 3.71875q-2.65625 3.703125 -5.3125 9.796875q-2.65625 6.078125 -4.3125 12.828125q-1.21875 5.3125 -2.78125 7.078125q-1.546875 1.765625 -5.078125 1.765625q-4.203125 0 -5.921875 -4.421875q-1.71875 -4.421875 -1.71875 -14.15625q0 -14.390625 4.09375 -27.34375q1.0 -3.203125 3.265625 -4.6875q2.265625 -1.5 6.359375 -1.5q2.21875 0 3.09375 0.5625q0.890625 0.546875 0.890625 2.09375q0 1.765625 -1.65625 7.96875q-1.109375 4.421875 -1.78125 7.75q-0.65625 3.3125 -1.09375 8.171875q3.65625 -9.515625 8.1875 -15.484375q4.53125 -5.96875 8.84375 -8.515625q4.328125 -2.546875 7.859375 -2.546875q3.21875 0 4.921875 1.828125q1.71875 1.8125 1.71875 5.359375q0 2.109375 -1.21875 7.96875l1.0 0z" fill-rule="nonzero"/><path fill="#000000" d="m339.90503 426.91748q3.4375 0.65625 5.140625 2.328125q1.71875 1.65625 1.71875 3.875q0 3.640625 -2.046875 5.3125q-2.046875 1.65625 -6.46875 1.3125q-9.96875 -0.765625 -15.5625 -1.046875q-5.578125 -0.28125 -14.65625 -0.390625q-4.09375 20.359375 -7.515625 40.953125q-1.21875 7.515625 -2.546875 17.421875q-1.328125 9.90625 -1.765625 15.984375q-0.234375 3.21875 -2.671875 4.9375q-2.421875 1.703125 -5.859375 1.703125q-3.640625 0 -5.640625 -1.765625q-1.984375 -1.765625 -1.984375 -4.640625q0 -2.65625 0.828125 -8.796875q0.828125 -6.140625 1.9375 -12.890625q1.21875 -6.75 1.875 -11.734375q1.21875 -8.40625 2.765625 -16.703125q1.546875 -8.3125 3.09375 -15.71875q0.34375 -1.65625 0.78125 -3.8125q0.4375 -2.171875 1.0 -4.828125q-10.84375 0.34375 -17.046875 1.78125q-6.203125 1.4375 -8.796875 4.046875q-2.59375 2.59375 -2.59375 6.6875q0 3.765625 2.203125 7.1875q0.453125 0.78125 0.453125 1.65625q0 2.109375 -2.5 3.9375q-2.484375 1.828125 -5.140625 1.828125q-1.875 0 -3.0937653 -1.109375q-2.21875 -1.890625 -3.65625 -5.375q-1.4375 -3.484375 -1.4375 -7.90625q0 -9.40625 6.1406403 -15.109375q6.140625 -5.703125 18.703125 -8.34375q12.5625 -2.65625 32.25 -2.65625q12.171875 0 19.421875 0.4375q7.25 0.4375 12.671875 1.4375zm28.776764 67.171875q1.4375 0 2.265625 1.328125q0.828125 1.328125 0.828125 3.640625q0 4.4375 -2.109375 6.859375q-4.09375 4.984375 -11.5625 9.1875q-7.46875 4.203125 -15.984375 4.203125q-11.625 0 -18.046875 -6.296875q-6.40625 -6.3125 -6.40625 -17.265625q0 -7.640625 3.203125 -14.21875q3.203125 -6.578125 8.90625 -10.453125q5.703125 -3.875 12.890625 -3.875q6.421875 0 10.296875 3.8125q3.875 3.8125 3.875 10.34375q0 7.640625 -5.484375 13.125q-5.46875 5.46875 -18.53125 8.671875q2.765625 5.09375 10.515625 5.09375q4.96875 0 11.328125 -3.484375q6.375 -3.484375 11.015625 -9.125q1.328125 -1.546875 3.0 -1.546875zm-27.890625 -16.046875q-4.09375 0 -6.921875 4.765625q-2.8125 4.75 -2.8125 11.5l0 0.21875q6.515625 -1.546875 10.28125 -4.640625q3.765625 -3.109375 3.765625 -7.203125q0 -2.09375 -1.171875 -3.359375q-1.15625 -1.28125 -3.140625 -1.28125zm43.15979 41.265625q-10.84375 0 -16.875 -6.140625q-6.03125 -6.140625 -6.03125 -16.203125q0 -8.96875 3.53125 -15.71875q3.546875 -6.75 9.1875 -10.390625q5.640625 -3.65625 11.84375 -3.65625q6.078125 0 9.453125 3.59375q3.375 3.59375 3.375 9.234375q0 4.65625 -2.046875 7.859375q-2.046875 3.203125 -5.359375 3.203125q-2.109375 0 -3.390625 -0.984375q-1.265625 -1.0 -1.265625 -2.765625q0 -0.78125 0.21875 -1.765625q0.234375 -1.0 0.34375 -1.453125q0.546875 -1.65625 0.546875 -3.09375q0 -1.4375 -0.71875 -2.203125q-0.71875 -0.78125 -2.046875 -0.78125q-2.546875 0 -4.765625 2.265625q-2.203125 2.265625 -3.53125 6.140625q-1.328125 3.875 -1.328125 8.515625q0 12.84375 11.171875 12.84375q4.546875 0 9.796875 -3.046875q5.25 -3.046875 10.34375 -9.125q1.328125 -1.546875 2.984375 -1.546875q1.453125 0 2.28125 1.328125q0.828125 1.328125 0.828125 3.640625q0 4.21875 -2.109375 6.859375q-5.203125 6.421875 -12.453125 9.90625q-7.234375 3.484375 -13.984375 3.484375zm58.752777 -52.109375q3.546875 0 5.359375 1.828125q1.828125 1.8125 1.828125 5.359375q0 2.875 -1.21875 10.84375q-1.09375 6.75 -1.765625 12.78125q-0.65625 6.03125 -0.65625 13.453125q0 4.203125 -1.71875 6.03125q-1.71875 1.8125 -5.59375 1.8125q-3.65625 0 -5.3125 -1.875q-1.65625 -1.875 -1.65625 -5.640625q0 -4.421875 1.546875 -14.609375q1.328125 -8.859375 1.328125 -11.28125q0 -1.78125 -1.21875 -1.78125q-1.4375 0 -4.09375 3.71875q-2.65625 3.703125 -5.3125 9.796875q-2.65625 6.078125 -4.3125 12.828125q-1.21875 5.203125 -2.828125 7.03125q-1.59375 1.8125 -5.03125 1.8125q-3.421875 0 -5.03125 -2.484375q-1.609375 -2.484375 -2.15625 -7.6875q-0.546875 -5.203125 -0.546875 -15.265625q0 -17.046875 3.484375 -35.515625q3.484375 -18.484375 10.28125 -31.046875q6.8125 -12.5625 16.328125 -12.5625q5.09375 0 8.234375 4.375q3.15625 4.359375 3.15625 11.34375q0 11.171875 -6.53125 23.1875q-6.515625 12.0 -21.234375 28.046875q-0.34375 5.75 -0.34375 11.828125q3.65625 -9.40625 8.140625 -15.3125q4.484375 -5.921875 8.84375 -8.46875q4.375 -2.546875 8.03125 -2.546875zm-10.625 -41.5q-1.984375 0 -4.421875 5.703125q-2.4375 5.6875 -4.703125 15.375q-2.265625 9.6875 -3.703125 21.078125q6.859375 -8.078125 11.328125 -17.59375q4.484375 -9.515625 4.484375 -17.265625q0 -3.53125 -0.78125 -5.40625q-0.765625 -1.890625 -2.203125 -1.890625z" fill-rule="nonzero"/></g></svg>